<?xml version="1.0" encoding="UTF-8"?>
<svg width="300px" height="48px" viewBox="0 0 300 48" version="1.1" xmlns="http://www.w3.org/2000/svg" xmlns:xlink="http://www.w3.org/1999/xlink">
    <title>CA878503-7CCD-4C07-A490-5CA94806BEF8</title>
    <g id="Website" stroke="none" stroke-width="1" fill="none" fill-rule="evenodd">
        <g id="Desktop-/-Home-Page" transform="translate(-103.000000, -2124.000000)" fill="#F46519">
            <g id="Arrows" transform="translate(103.000000, 2124.000000)">
                <path d="M264.733603,0 L253.838797,0 C253.315278,0 253.008645,0.589404748 253.309668,1.01976377 L268.869404,23.2580985 C269.181646,23.7034265 269.181646,24.2965735 268.869404,24.7437727 L253.309668,46.9821074 C253.008645,47.4105953 253.315278,48 253.838797,48 L264.733603,48 C265.156158,48 265.550667,47.7941761 265.793729,47.4480178 L281.680664,24.7437727 C281.992906,24.2965735 281.992906,23.7034265 281.680664,23.2580985 L265.793729,0.551982224 C265.550667,0.20582388 265.156158,0 264.733603,0" id="Fill-4"></path>
                <path d="M282.818757,0 L271.925821,0 C271.400432,0 271.093799,0.589404748 271.394823,1.01976377 L286.954558,23.2580985 C287.2668,23.7034265 287.2668,24.2965735 286.954558,24.7437727 L271.394823,46.9821074 C271.093799,47.4105953 271.400432,48 271.925821,48 L282.818757,48 C283.241312,48 283.635821,47.7941761 283.878884,47.4480178 L299.765819,24.7437727 C300.07806,24.2965735 300.07806,23.7034265 299.765819,23.2580985 L283.878884,0.551982224 C283.635821,0.20582388 283.241312,0 282.818757,0" id="Fill-6"></path>
                <path d="M228.563481,0 L217.668675,0 C217.145156,0 216.838523,0.589404748 217.139547,1.01976377 L232.699282,23.2580985 C233.011524,23.7034265 233.011524,24.2965735 232.699282,24.7437727 L217.139547,46.9821074 C216.838523,47.4105953 217.145156,48 217.668675,48 L228.563481,48 C228.986036,48 229.380545,47.7941761 229.623607,47.4480178 L245.510543,24.7437727 C245.822784,24.2965735 245.822784,23.7034265 245.510543,23.2580985 L229.623607,0.551982224 C229.380545,0.20582388 228.986036,0 228.563481,0" id="Fill-8"></path>
                <path d="M246.648636,0 L235.753829,0 C235.23031,0 234.923677,0.589404748 235.224701,1.01976377 L250.784437,23.2580985 C251.096678,23.7034265 251.096678,24.2965735 250.784437,24.7437727 L235.224701,46.9821074 C234.923677,47.4105953 235.23031,48 235.753829,48 L246.648636,48 C247.07119,48 247.465699,47.7941761 247.708762,47.4480178 L263.595697,24.7437727 C263.907939,24.2965735 263.907939,23.7034265 263.595697,23.2580985 L247.708762,0.551982224 C247.465699,0.20582388 247.07119,0 246.648636,0" id="Fill-10"></path>
                <path d="M192.39336,0 L181.498553,0 C180.975034,0 180.668401,0.589404748 180.969425,1.01976377 L196.52916,23.2580985 C196.841402,23.7034265 196.841402,24.2965735 196.52916,24.7437727 L180.969425,46.9821074 C180.668401,47.4105953 180.975034,48 181.498553,48 L192.39336,48 C192.815914,48 193.210423,47.7941761 193.453486,47.4480178 L209.340421,24.7437727 C209.652663,24.2965735 209.652663,23.7034265 209.340421,23.2580985 L193.453486,0.551982224 C193.210423,0.20582388 192.815914,0 192.39336,0" id="Fill-12"></path>
                <path d="M210.47814,0 L199.585203,0 C199.059814,0 198.753182,0.589404748 199.054205,1.01976377 L214.613941,23.2580985 C214.926183,23.7034265 214.926183,24.2965735 214.613941,24.7437727 L199.054205,46.9821074 C198.753182,47.4105953 199.059814,48 199.585203,48 L210.47814,48 C210.900695,48 211.295204,47.7941761 211.538266,47.4480178 L227.425201,24.7437727 C227.737443,24.2965735 227.737443,23.7034265 227.425201,23.2580985 L211.538266,0.551982224 C211.295204,0.20582388 210.900695,0 210.47814,0" id="Fill-14"></path>
                <path d="M156.223051,0 L145.328244,0 C144.804725,0 144.498093,0.589404748 144.799116,1.01976377 L160.358852,23.2580985 C160.671093,23.7034265 160.671093,24.2965735 160.358852,24.7437727 L144.799116,46.9821074 C144.498093,47.4105953 144.804725,48 145.328244,48 L156.223051,48 C156.645605,48 157.040115,47.7941761 157.283177,47.4480178 L173.170112,24.7437727 C173.482354,24.2965735 173.482354,23.7034265 173.170112,23.2580985 L157.283177,0.551982224 C157.040115,0.20582388 156.645605,0 156.223051,0" id="Fill-16"></path>
                <path d="M174.308018,0 L163.415081,0 C162.889693,0 162.58306,0.589404748 162.884083,1.01976377 L178.443819,23.2580985 C178.756061,23.7034265 178.756061,24.2965735 178.443819,24.7437727 L162.884083,46.9821074 C162.58306,47.4105953 162.889693,48 163.415081,48 L174.308018,48 C174.730573,48 175.125082,47.7941761 175.368144,47.4480178 L191.255079,24.7437727 C191.567321,24.2965735 191.567321,23.7034265 191.255079,23.2580985 L175.368144,0.551982224 C175.125082,0.20582388 174.730573,0 174.308018,0" id="Fill-18"></path>
                <path d="M120.052929,0 L109.158123,0 C108.634603,0 108.327971,0.589404748 108.628994,1.01976377 L124.18873,23.2580985 C124.500972,23.7034265 124.500972,24.2965735 124.18873,24.7437727 L108.628994,46.9821074 C108.327971,47.4105953 108.634603,48 109.158123,48 L120.052929,48 C120.475484,48 120.869993,47.7941761 121.113055,47.4480178 L136.99999,24.7437727 C137.312232,24.2965735 137.312232,23.7034265 136.99999,23.2580985 L121.113055,0.551982224 C120.869993,0.20582388 120.475484,0 120.052929,0" id="Fill-20"></path>
                <path d="M138.138083,0 L127.243277,0 C126.719758,0 126.413125,0.589404748 126.714149,1.01976377 L142.273884,23.2580985 C142.586126,23.7034265 142.586126,24.2965735 142.273884,24.7437727 L126.714149,46.9821074 C126.413125,47.4105953 126.719758,48 127.243277,48 L138.138083,48 C138.560638,48 138.955147,47.7941761 139.19821,47.4480178 L155.085145,24.7437727 C155.397386,24.2965735 155.397386,23.7034265 155.085145,23.2580985 L139.19821,0.551982224 C138.955147,0.20582388 138.560638,0 138.138083,0" id="Fill-22"></path>
                <path d="M83.8826203,0 L72.9878138,0 C72.4642947,0 72.1576621,0.589404748 72.4586856,1.01976377 L88.0184212,23.2580985 C88.3306629,23.7034265 88.3306629,24.2965735 88.0184212,24.7437727 L72.4586856,46.9821074 C72.1576621,47.4105953 72.4642947,48 72.9878138,48 L83.8826203,48 C84.305175,48 84.699684,47.7941761 84.9427464,47.4480178 L100.829682,24.7437727 C101.141923,24.2965735 101.141923,23.7034265 100.829682,23.2580985 L84.9427464,0.551982224 C84.699684,0.20582388 84.305175,0 83.8826203,0" id="Fill-24"></path>
                <path d="M101.967775,0 L91.0729682,0 C90.5494491,0 90.2428164,0.589404748 90.5438399,1.01976377 L106.103576,23.2580985 C106.415817,23.7034265 106.415817,24.2965735 106.103576,24.7437727 L90.5438399,46.9821074 C90.2428164,47.4105953 90.5494491,48 91.0729682,48 L101.967775,48 C102.390329,48 102.784838,47.7941761 103.027901,47.4480178 L118.914836,24.7437727 C119.227078,24.2965735 119.227078,23.7034265 118.914836,23.2580985 L103.027901,0.551982224 C102.784838,0.20582388 102.390329,0 101.967775,0" id="Fill-26"></path>
                <path d="M47.7126855,0 L36.817879,0 C36.2943599,0 35.9877273,0.589404748 36.2887508,1.01976377 L51.8484864,23.2580985 C52.1607281,23.7034265 52.1607281,24.2965735 51.8484864,24.7437727 L36.2887508,46.9821074 C35.9877273,47.4105953 36.2943599,48 36.817879,48 L47.7126855,48 C48.1352402,48 48.5297492,47.7941761 48.7728116,47.4480178 L64.6597467,24.7437727 C64.9719884,24.2965735 64.9719884,23.7034265 64.6597467,23.2580985 L48.7728116,0.551982224 C48.5297492,0.20582388 48.1352402,0 47.7126855,0" id="Fill-28"></path>
                <path d="M65.7976529,0 L54.9028464,0 C54.3793273,0 54.0726947,0.589404748 54.3737182,1.01976377 L69.9334538,23.2580985 C70.2456955,23.7034265 70.2456955,24.2965735 69.9334538,24.7437727 L54.3737182,46.9821074 C54.0726947,47.4105953 54.3793273,48 54.9028464,48 L65.7976529,48 C66.2202076,48 66.6147166,47.7941761 66.857779,47.4480178 L82.7447141,24.7437727 C83.0569558,24.2965735 83.0569558,23.7034265 82.7447141,23.2580985 L66.857779,0.551982224 C66.6147166,0.20582388 66.2202076,0 65.7976529,0" id="Fill-30"></path>
                <path d="M11.5425637,0 L0.647757217,0 C0.124238114,0 -0.182394503,0.589404748 0.118628981,1.01976377 L15.6783646,23.2580985 C15.9906063,23.7034265 15.9906063,24.2965735 15.6783646,24.7437727 L0.118628981,46.9821074 C-0.182394503,47.4105953 0.124238114,48 0.647757217,48 L11.5425637,48 C11.9651184,48 12.3596274,47.7941761 12.6026899,47.4480178 L28.4896249,24.7437727 C28.8018667,24.2965735 28.8018667,23.7034265 28.4896249,23.2580985 L12.6026899,0.551982224 C12.3596274,0.20582388 11.9651184,0 11.5425637,0" id="Fill-32"></path>
                <path d="M29.6273441,0 L18.7325376,0 C18.2090185,0 17.9023859,0.589404748 18.2034094,1.01976377 L33.763145,23.2580985 C34.0753868,23.7034265 34.0753868,24.2965735 33.763145,24.7437727 L18.2034094,46.9821074 C17.9023859,47.4105953 18.2090185,48 18.7325376,48 L29.6273441,48 C30.0498988,48 30.4444079,47.7941761 30.6874703,47.4480178 L46.5744054,24.7437727 C46.8866471,24.2965735 46.8866471,23.7034265 46.5744054,23.2580985 L30.6874703,0.551982224 C30.4444079,0.20582388 30.0498988,0 29.6273441,0" id="Fill-34"></path>
            </g>
        </g>
    </g>
</svg>