<?xml version="1.0" encoding="UTF-8"?>
<svg width="37px" height="26px" viewBox="0 0 37 26" version="1.1" xmlns="http://www.w3.org/2000/svg" xmlns:xlink="http://www.w3.org/1999/xlink">
    <title>0D77FCC4-4C69-4657-A35F-A25D80E2962E</title>
    <g id="Website" stroke="none" stroke-width="1" fill="none" fill-rule="evenodd">
        <g id="Desktop-/-Home-Page" transform="translate(-313.000000, -3402.000000)" fill="#17D1FF">
            <path d="M321.61,3402 C315.995,3407.091 313,3412.482 313,3417.423 C313,3423.488 316.294,3427.83 321.011,3427.83 C325.129,3427.83 328.573,3424.311 328.573,3420.044 C328.573,3415.926 325.204,3412.407 321.161,3412.407 C321.835,3409.936 323.557,3407.391 325.952,3405.294 L321.61,3402 Z M342.574,3402 C336.958,3407.091 333.964,3412.482 333.964,3417.423 C333.964,3423.488 337.258,3427.83 341.975,3427.83 C346.093,3427.83 349.537,3424.311 349.537,3420.044 C349.537,3415.926 346.167,3412.407 342.124,3412.407 C342.798,3409.936 344.52,3407.391 346.916,3405.294 L342.574,3402 Z" id="Quotes"></path>
        </g>
    </g>
</svg>