<?xml version="1.0" encoding="UTF-8"?>
<svg width="25px" height="25px" viewBox="0 0 25 25" version="1.1" xmlns="http://www.w3.org/2000/svg" xmlns:xlink="http://www.w3.org/1999/xlink">
    <title>BF148C76-E0AE-4AD0-BE2F-B49A0EE5D00E</title>
    <g id="Website" stroke="none" stroke-width="1" fill="none" fill-rule="evenodd">
        <g id="Desktop-/-Home-Page" transform="translate(-1312.000000, -67.000000)" fill="#003B5C" fill-rule="nonzero">
            <path d="M1336.67774,90.2014297 L1330.48533,84.0028083 C1331.95048,82.2055144 1332.83365,79.9180495 1332.83365,77.4212407 C1332.83365,71.6770488 1328.16254,67 1322.41427,67 C1316.666,67 1312,71.6770488 1312,77.4212407 C1312,83.1654327 1316.67111,87.8373755 1322.41938,87.8373755 C1324.91063,87.8373755 1327.2028,86.9540465 1328.99977,85.4886393 L1335.19218,91.6821547 C1335.61589,92.1059484 1336.25913,92.1059484 1336.68285,91.6821547 C1337.10656,91.258361 1337.10656,90.6252234 1336.67774,90.2014297 Z M1314.07775,77.4212407 C1314.07775,72.8207812 1317.81464,69.083227 1322.41427,69.083227 C1327.01391,69.083227 1330.7559,72.8258872 1330.7559,77.4263467 C1330.7559,82.0268062 1327.01391,85.7694664 1322.41427,85.7694664 C1317.81464,85.7694664 1314.07775,82.0217003 1314.07775,77.4212407 Z" id="Search"></path>
        </g>
    </g>
</svg>