<?xml version="1.0" encoding="UTF-8"?>
<svg width="63px" height="55px" viewBox="0 0 63 55" version="1.1" xmlns="http://www.w3.org/2000/svg" xmlns:xlink="http://www.w3.org/1999/xlink">
    <title>09A6C6C6-E353-4EFD-8B10-AD502B81DF53</title>
    <g id="Website" stroke="none" stroke-width="1" fill="none" fill-rule="evenodd">
        <g id="Desktop-/-Home-Page" transform="translate(-969.000000, -1267.000000)" fill="#17D1FF">
            <g id="Airports" transform="translate(969.000000, 1267.000000)">
                <path d="M0,22.579037 L0,36.8966815 C0,37.5845676 0.774560634,37.987687 1.33776829,37.5929785 L30.5248942,17.144436 C31.1103179,16.7341074 31.8896821,16.7341074 32.4751058,17.144436 L61.6622317,37.5929785 C62.2260398,37.987687 63,37.5845676 63,36.8966815 L63,22.579037 C63,22.0239219 62.729204,21.5036517 62.2752754,21.1858423 L32.4751058,0.307746449 C31.8896821,-0.10258215 31.1103179,-0.10258215 30.5248942,0.307746449 L0.725324997,21.1858423 C0.270796005,21.5036517 0,22.0239219 0,22.579037" id="Fill-1"></path>
                <path d="M47.3120849,38.4376666 L32.475346,28.0424752 C31.8893218,27.6321466 31.1105581,27.6321466 30.5251344,28.0424752 L15.687795,38.4370659 C15.233266,38.755476 14.96247,39.2763471 14.96247,39.8314622 L14.96247,54.1467035 C14.96247,54.8357912 15.737631,55.2395113 16.3008387,54.8442021 L30.5251344,44.8791648 C31.1105581,44.4688362 31.8893218,44.4688362 32.475346,44.8791648 L46.6990412,54.8448028 C47.2628493,55.2395113 48.0374099,54.8357912 48.0374099,54.1467035 L48.0374099,39.8314622 C48.0374099,39.2763471 47.7666139,38.755476 47.3120849,38.4376666" id="Fill-3"></path>
            </g>
        </g>
    </g>
</svg>