<?xml version="1.0" encoding="UTF-8"?>
<svg width="48px" height="55px" viewBox="0 0 48 55" version="1.1" xmlns="http://www.w3.org/2000/svg" xmlns:xlink="http://www.w3.org/1999/xlink">
    <title>BFE0F169-48E7-497F-A91B-74CC08757322</title>
    <g id="Website" stroke="none" stroke-width="1" fill="none" fill-rule="evenodd">
        <g id="Desktop-/-Home-Page" transform="translate(-318.000000, -1643.000000)" fill="#17D1FF">
            <g id="Buildings" transform="translate(318.000000, 1643.000000)">
                <path d="M47.9997827,37.8797474 L47.9997827,27.0240407 C47.9997827,26.5020047 47.4100994,26.1963449 46.9805319,26.4956273 L24.7427481,42.0009164 C24.2967115,42.3115871 23.7033685,42.3115871 23.2573319,42.0009164 L1.0190907,26.4956273 C0.589980617,26.1963449 0.000297357734,26.5020047 0.000297357734,27.0240407 L0.000297357734,37.8797474 C0.000297357734,38.300656 0.206160404,38.6946885 0.552467795,38.9361187 L23.2573319,54.7666554 C23.7033685,55.0777815 24.2967115,55.0777815 24.7427481,54.7666554 L47.4476122,38.9361187 C47.7939196,38.6946885 47.9997827,38.300656 47.9997827,37.8797474" id="Fill-1"></path>
                <path d="M24.7432514,20.8596884 C24.2972148,21.1708146 23.7029568,21.1708146 23.2564627,20.8596884 L18.429203,17.4933306 C18.0604794,17.2368679 18.0604794,16.6934221 18.429203,16.4365038 L23.2564627,13.0706016 C23.7029568,12.7594754 24.2967573,12.7594754 24.7432514,13.0706016 L29.5709685,16.4365038 C29.9392347,16.6934221 29.9392347,17.2368679 29.5709685,17.4937862 L24.7432514,20.8596884 Z M47.5784954,16.1545315 L39.53474,10.5465165 L24.7432514,0.233344625 C24.2967573,-0.0777815416 23.7029568,-0.0777815416 23.2564627,0.233344625 L8.46497409,10.5465165 L0.42167614,16.1545315 C-0.140558713,16.5499305 -0.140558713,17.379904 0.42167614,17.775303 L8.46497409,23.3837735 L23.2564627,33.6969454 C23.7029568,34.007616 24.2972148,34.007616 24.7432514,33.6969454 L39.53474,23.3837735 L47.5784954,17.775303 C48.1407302,17.379904 48.1402728,16.5499305 47.5784954,16.1545315 L47.5784954,16.1545315 Z" id="Fill-3"></path>
            </g>
        </g>
    </g>
</svg>