<?xml version="1.0" encoding="UTF-8"?>
<svg width="61px" height="55px" viewBox="0 0 61 55" version="1.1" xmlns="http://www.w3.org/2000/svg" xmlns:xlink="http://www.w3.org/1999/xlink">
    <title>73950F76-2EBC-4BA3-B716-1E7747D79870</title>
    <g id="Website" stroke="none" stroke-width="1" fill="none" fill-rule="evenodd">
        <g id="Desktop-/-Home-Page" transform="translate(-123.000000, -1267.000000)" fill="#17D1FF">
            <path d="M184,1288.7924 C184,1288.25663 183.737801,1287.75448 183.298283,1287.44774 L154.44415,1267.29702 C153.877311,1266.90099 153.122689,1266.90099 152.55585,1267.29702 L123.701717,1287.44774 C123.261618,1287.75448 123,1288.25663 123,1288.7924 L123,1302.61065 C123,1302.61935 123.003488,1302.62631 123.003488,1302.635 L123.008721,1312.58628 C123.009302,1313.12147 123.271501,1313.62362 123.711601,1313.93094 L135.064656,1321.85044 C135.610566,1322.23081 136.359956,1321.84174 136.359374,1321.17782 L136.346003,1295.72269 C136.345421,1295.18634 136.607621,1294.68419 137.04772,1294.37687 L152.55585,1283.54656 C153.122689,1283.1511 153.877311,1283.1511 154.44415,1283.54656 L169.941815,1294.36992 C170.382496,1294.67723 170.644114,1295.17996 170.644114,1295.71573 L170.630742,1321.17782 C170.630161,1321.84174 171.379551,1322.23081 171.924879,1321.85044 L183.279097,1313.93094 C183.719197,1313.62362 183.981396,1313.12147 183.981396,1312.58628 L183.986628,1302.70517 C183.990117,1302.67327 184,1302.64428 184,1302.61065 L184,1288.7924 Z" id="Road-tunnels"></path>
        </g>
    </g>
</svg>