<?xml version="1.0" encoding="UTF-8"?>
<svg width="49px" height="55px" viewBox="0 0 49 55" version="1.1" xmlns="http://www.w3.org/2000/svg" xmlns:xlink="http://www.w3.org/1999/xlink">
    <title>89E9A8BD-F42B-45DF-87EF-F1FC0CC9DD9E</title>
    <g id="Website" stroke="none" stroke-width="1" fill="none" fill-rule="evenodd">
        <g id="Desktop-/-Home-Page" transform="translate(-545.000000, -1267.000000)" fill="#17D1FF">
            <g id="Transport-Copy" transform="translate(545.000000, 1267.000000)">
                <path d="M29.4113035,0 L17.0144531,0 C16.4099321,0 16.0560788,0.684073082 16.4026361,1.18205732 L34.1270887,26.6437292 C34.48459,27.1579635 34.48459,27.8425607 34.1270887,28.356795 L16.4026361,53.8179427 C16.0560788,54.3159269 16.4099321,55 17.0144531,55 L29.4113035,55 C29.8959626,55 30.3498745,54.7625401 30.6271204,54.3631044 L48.7314832,28.356795 C49.0895056,27.8425607 49.0895056,27.1579635 48.7314832,26.6437292 L30.6276415,0.636895628 C30.3498745,0.237459852 29.8959626,0 29.4113035,0" id="Fill-1"></path>
                <path d="M0,22.2257703 L0,32.774649 C0,33.1845687 0.330402016,33.5169076 0.738453717,33.5169076 L20.4718965,33.5169076 C20.9539499,33.5169076 21.4052562,33.2804962 21.6814597,32.8836814 L24.8364342,28.3515006 C25.192372,27.8398873 25.192372,27.1600078 24.8364342,26.6489187 L21.6814597,22.116738 C21.4052562,21.7199232 20.9539499,21.4829875 20.4718965,21.4829875 L0.738453717,21.4829875 C0.330402016,21.4829875 0,21.8158507 0,22.2257703" id="Fill-3"></path>
            </g>
        </g>
    </g>
</svg>