<?xml version="1.0" encoding="UTF-8"?>
<svg width="57px" height="55px" viewBox="0 0 57 55" version="1.1" xmlns="http://www.w3.org/2000/svg" xmlns:xlink="http://www.w3.org/1999/xlink">
    <title>8B64B06F-A418-44E5-AA91-C3DB9E4CF7AA</title>
    <g id="Website" stroke="none" stroke-width="1" fill="none" fill-rule="evenodd">
        <g id="Desktop-/-Home-Page" transform="translate(-740.000000, -1643.000000)" fill="#17D1FF">
            <g id="Utilities" transform="translate(740.000000, 1643.000000)">
                <path d="M37.0578017,38.6868648 L19.9427783,26.7348328 C19.3772273,26.3397099 18.6237394,26.3397099 18.0576084,26.7348328 L0.700703186,38.8557899 C0.261023538,39.1624006 0,39.6633909 0,40.1985133 L0,54.58434 C0,54.9117771 0.369493319,55.1038427 0.638637589,54.9164052 L18.0576084,42.7514813 C18.6237394,42.3563584 19.3772273,42.3563584 19.9427783,42.7514813 L37.0578017,54.7040918 C37.6239328,55.0986361 38.3762606,55.0986361 38.9423916,54.7040918 L56.2992968,42.5825561 C56.7389765,42.2759454 57,41.7749551 57,41.2404112 L57,26.854006 C57,26.5265689 56.6305067,26.3345033 56.3613624,26.5225193 L38.9423916,38.6868648 C38.3762606,39.0825661 37.6239328,39.0825661 37.0578017,38.6868648" id="Fill-1"></path>
                <path d="M37.0578017,12.248808 L19.9427783,0.296776012 C19.3772273,-0.0989253374 18.6237394,-0.0989253374 18.0576084,0.296776012 L0.700703186,12.4177331 C0.261023538,12.7243438 0,13.2253341 0,13.7598781 L0,28.1462833 C0,28.4737204 0.369493319,28.6657859 0.638637589,28.4777699 L18.0576084,16.312846 C18.6237394,15.9183017 19.3772273,15.9183017 19.9427783,16.312846 L37.0578017,28.2654565 C37.6239328,28.6605793 38.3762606,28.6605793 38.9423916,28.2654565 L56.2992968,16.1444994 C56.7389765,15.8378887 57,15.3368984 57,14.8017759 L57,0.415949226 C57,0.0879336332 56.6305067,-0.103553423 56.3613624,0.0844625688 L38.9423916,12.248808 C38.3762606,12.6445094 37.6239328,12.6445094 37.0578017,12.248808" id="Fill-3"></path>
            </g>
        </g>
    </g>
</svg>